<svg width="120" height="46" viewBox="0 0 120 46" fill="none" xmlns="http://www.w3.org/2000/svg">
<g clip-path="url(#clip0_134_28563)">
<path d="M23.144 31H18.384L7.606 14.714V31H2.846V7.234H7.606L18.384 23.554V7.234H23.144V31ZM28.698 11.11V17.06H36.688V20.834H28.698V27.124H37.708V31H23.938V7.234H37.708V11.11H28.698ZM52.3357 31L47.2017 23.01L42.5437 31H37.1717L44.6517 19.032L37.0697 7.268H42.5437L47.6777 15.224L52.3017 7.268H57.6737L50.2277 19.202L57.8097 31H52.3357ZM73.6723 7.268V11.11H67.3483V31H62.5883V11.11H56.2643V7.268H73.6723ZM84.2513 31.238C82.03 31.238 79.99 30.7167 78.1313 29.674C76.2726 28.6313 74.7993 27.192 73.7113 25.356C72.6233 23.4973 72.0793 21.4007 72.0793 19.066C72.0793 16.754 72.6233 14.68 73.7113 12.844C74.7993 10.9853 76.2726 9.53466 78.1313 8.492C79.99 7.44933 82.03 6.928 84.2513 6.928C86.4953 6.928 88.5353 7.44933 90.3713 8.492C92.23 9.53466 93.692 10.9853 94.7573 12.844C95.8453 14.68 96.3893 16.754 96.3893 19.066C96.3893 21.4007 95.8453 23.4973 94.7573 25.356C93.692 27.192 92.23 28.6313 90.3713 29.674C88.5126 30.7167 86.4726 31.238 84.2513 31.238ZM84.2513 26.988C85.6793 26.988 86.9373 26.6707 88.0253 26.036C89.1133 25.3787 89.9633 24.4493 90.5753 23.248C91.1873 22.0467 91.4933 20.6527 91.4933 19.066C91.4933 17.4793 91.1873 16.0967 90.5753 14.918C89.9633 13.7167 89.1133 12.7987 88.0253 12.164C86.9373 11.5293 85.6793 11.212 84.2513 11.212C82.8233 11.212 81.554 11.5293 80.4433 12.164C79.3553 12.7987 78.5053 13.7167 77.8933 14.918C77.2813 16.0967 76.9753 17.4793 76.9753 19.066C76.9753 20.6527 77.2813 22.0467 77.8933 23.248C78.5053 24.4493 79.3553 25.3787 80.4433 26.036C81.554 26.6707 82.8233 26.988 84.2513 26.988ZM116.319 31H111.559L100.781 14.714V31H96.0206V7.234H100.781L111.559 23.554V7.234H116.319V31Z" fill="#111827"/>
<path d="M49.578 41.87C49.578 42.1127 49.564 42.3693 49.536 42.64H43.404C43.4507 43.396 43.7073 43.9887 44.174 44.418C44.65 44.838 45.224 45.048 45.896 45.048C46.4467 45.048 46.904 44.922 47.268 44.67C47.6413 44.4087 47.9027 44.0633 48.052 43.634H49.424C49.2187 44.3713 48.808 44.9733 48.192 45.44C47.576 45.8973 46.8107 46.126 45.896 46.126C45.168 46.126 44.5147 45.9627 43.936 45.636C43.3667 45.3093 42.9187 44.8473 42.592 44.25C42.2653 43.6433 42.102 42.9433 42.102 42.15C42.102 41.3567 42.2607 40.6613 42.578 40.064C42.8953 39.4667 43.3387 39.0093 43.908 38.692C44.4867 38.3653 45.1493 38.202 45.896 38.202C46.624 38.202 47.268 38.3607 47.828 38.678C48.388 38.9953 48.8173 39.434 49.116 39.994C49.424 40.5447 49.578 41.17 49.578 41.87ZM48.262 41.604C48.262 41.1187 48.1547 40.7033 47.94 40.358C47.7253 40.0033 47.4313 39.7373 47.058 39.56C46.694 39.3733 46.288 39.28 45.84 39.28C45.196 39.28 44.6453 39.4853 44.188 39.896C43.74 40.3067 43.4833 40.876 43.418 41.604H48.262ZM49.3836 41.114C49.3836 40.162 49.5983 39.308 50.0276 38.552C50.457 37.7867 51.0403 37.1893 51.7776 36.76C52.5243 36.3307 53.3503 36.116 54.2556 36.116C55.3196 36.116 56.2483 36.3727 57.0416 36.886C57.835 37.3993 58.4136 38.1273 58.7776 39.07H57.2516C56.981 38.482 56.589 38.0293 56.0756 37.712C55.5716 37.3947 54.965 37.236 54.2556 37.236C53.5743 37.236 52.963 37.3947 52.4216 37.712C51.8803 38.0293 51.4556 38.482 51.1476 39.07C50.8396 39.6487 50.6856 40.33 50.6856 41.114C50.6856 41.8887 50.8396 42.57 51.1476 43.158C51.4556 43.7367 51.8803 44.1847 52.4216 44.502C52.963 44.8193 53.5743 44.978 54.2556 44.978C54.965 44.978 55.5716 44.824 56.0756 44.516C56.589 44.1987 56.981 43.746 57.2516 43.158H58.7776C58.4136 44.0913 57.835 44.8147 57.0416 45.328C56.2483 45.832 55.3196 46.084 54.2556 46.084C53.3503 46.084 52.5243 45.874 51.7776 45.454C51.0403 45.0247 50.457 44.432 50.0276 43.676C49.5983 42.92 49.3836 42.066 49.3836 41.114ZM62.6201 46.126C61.9014 46.126 61.2481 45.9627 60.6601 45.636C60.0814 45.3093 59.6241 44.8473 59.2881 44.25C58.9614 43.6433 58.7981 42.9433 58.7981 42.15C58.7981 41.366 58.9661 40.6753 59.3021 40.078C59.6474 39.4713 60.1141 39.0093 60.7021 38.692C61.2901 38.3653 61.9481 38.202 62.6761 38.202C63.4041 38.202 64.0621 38.3653 64.6501 38.692C65.2381 39.0093 65.7001 39.4667 66.0361 40.064C66.3814 40.6613 66.5541 41.3567 66.5541 42.15C66.5541 42.9433 66.3768 43.6433 66.0221 44.25C65.6768 44.8473 65.2054 45.3093 64.6081 45.636C64.0108 45.9627 63.3481 46.126 62.6201 46.126ZM62.6201 45.006C63.0774 45.006 63.5068 44.8987 63.9081 44.684C64.3094 44.4693 64.6314 44.1473 64.8741 43.718C65.1261 43.2887 65.2521 42.766 65.2521 42.15C65.2521 41.534 65.1308 41.0113 64.8881 40.582C64.6454 40.1527 64.3281 39.8353 63.9361 39.63C63.5441 39.4153 63.1194 39.308 62.6621 39.308C62.1954 39.308 61.7661 39.4153 61.3741 39.63C60.9914 39.8353 60.6834 40.1527 60.4501 40.582C60.2168 41.0113 60.1001 41.534 60.1001 42.15C60.1001 42.7753 60.2121 43.3027 60.4361 43.732C60.6694 44.1613 60.9774 44.4833 61.3601 44.698C61.7428 44.9033 62.1628 45.006 62.6201 45.006ZM76.0552 38.188C76.6525 38.188 77.1845 38.314 77.6512 38.566C78.1178 38.8087 78.4865 39.1773 78.7572 39.672C79.0278 40.1667 79.1632 40.7687 79.1632 41.478V46H77.9032V41.66C77.9032 40.8947 77.7118 40.3113 77.3292 39.91C76.9558 39.4993 76.4472 39.294 75.8032 39.294C75.1405 39.294 74.6132 39.5087 74.2212 39.938C73.8292 40.358 73.6332 40.9693 73.6332 41.772V46H72.3732V41.66C72.3732 40.8947 72.1818 40.3113 71.7992 39.91C71.4258 39.4993 70.9172 39.294 70.2732 39.294C69.6105 39.294 69.0832 39.5087 68.6912 39.938C68.2992 40.358 68.1032 40.9693 68.1032 41.772V46H66.8292V38.328H68.1032V39.434C68.3552 39.0327 68.6912 38.7247 69.1112 38.51C69.5405 38.2953 70.0118 38.188 70.5252 38.188C71.1692 38.188 71.7385 38.3327 72.2332 38.622C72.7278 38.9113 73.0965 39.336 73.3392 39.896C73.5538 39.3547 73.9085 38.9347 74.4032 38.636C74.8978 38.3373 75.4485 38.188 76.0552 38.188ZM89.079 38.188C89.6763 38.188 90.2083 38.314 90.675 38.566C91.1417 38.8087 91.5103 39.1773 91.781 39.672C92.0517 40.1667 92.187 40.7687 92.187 41.478V46H90.927V41.66C90.927 40.8947 90.7357 40.3113 90.353 39.91C89.9797 39.4993 89.471 39.294 88.827 39.294C88.1643 39.294 87.637 39.5087 87.245 39.938C86.853 40.358 86.657 40.9693 86.657 41.772V46H85.397V41.66C85.397 40.8947 85.2057 40.3113 84.823 39.91C84.4497 39.4993 83.941 39.294 83.297 39.294C82.6343 39.294 82.107 39.5087 81.715 39.938C81.323 40.358 81.127 40.9693 81.127 41.772V46H79.853V38.328H81.127V39.434C81.379 39.0327 81.715 38.7247 82.135 38.51C82.5643 38.2953 83.0357 38.188 83.549 38.188C84.193 38.188 84.7623 38.3327 85.257 38.622C85.7517 38.9113 86.1203 39.336 86.363 39.896C86.5777 39.3547 86.9323 38.9347 87.427 38.636C87.9217 38.3373 88.4723 38.188 89.079 38.188ZM99.8768 41.87C99.8768 42.1127 99.8628 42.3693 99.8348 42.64H93.7028C93.7495 43.396 94.0062 43.9887 94.4728 44.418C94.9488 44.838 95.5228 45.048 96.1948 45.048C96.7455 45.048 97.2028 44.922 97.5668 44.67C97.9402 44.4087 98.2015 44.0633 98.3508 43.634H99.7228C99.5175 44.3713 99.1068 44.9733 98.4908 45.44C97.8748 45.8973 97.1095 46.126 96.1948 46.126C95.4668 46.126 94.8135 45.9627 94.2348 45.636C93.6655 45.3093 93.2175 44.8473 92.8908 44.25C92.5642 43.6433 92.4008 42.9433 92.4008 42.15C92.4008 41.3567 92.5595 40.6613 92.8768 40.064C93.1942 39.4667 93.6375 39.0093 94.2068 38.692C94.7855 38.3653 95.4482 38.202 96.1948 38.202C96.9228 38.202 97.5668 38.3607 98.1268 38.678C98.6868 38.9953 99.1162 39.434 99.4148 39.994C99.7228 40.5447 99.8768 41.17 99.8768 41.87ZM98.5608 41.604C98.5608 41.1187 98.4535 40.7033 98.2388 40.358C98.0242 40.0033 97.7302 39.7373 97.3568 39.56C96.9928 39.3733 96.5868 39.28 96.1388 39.28C95.4948 39.28 94.9442 39.4853 94.4868 39.896C94.0388 40.3067 93.7822 40.876 93.7168 41.604H98.5608ZM101.432 39.574C101.656 39.1353 101.974 38.7947 102.384 38.552C102.804 38.3093 103.313 38.188 103.91 38.188V39.504H103.574C102.146 39.504 101.432 40.2787 101.432 41.828V46H100.158V38.328H101.432V39.574ZM103.505 42.15C103.505 41.3567 103.664 40.666 103.981 40.078C104.298 39.4807 104.737 39.0187 105.297 38.692C105.866 38.3653 106.515 38.202 107.243 38.202C108.186 38.202 108.96 38.4307 109.567 38.888C110.183 39.3453 110.589 39.98 110.785 40.792H109.413C109.282 40.3253 109.026 39.9567 108.643 39.686C108.27 39.4153 107.803 39.28 107.243 39.28C106.515 39.28 105.927 39.532 105.479 40.036C105.031 40.5307 104.807 41.2353 104.807 42.15C104.807 43.074 105.031 43.788 105.479 44.292C105.927 44.796 106.515 45.048 107.243 45.048C107.803 45.048 108.27 44.9173 108.643 44.656C109.016 44.3947 109.273 44.0213 109.413 43.536H110.785C110.58 44.32 110.169 44.95 109.553 45.426C108.937 45.8927 108.167 46.126 107.243 46.126C106.515 46.126 105.866 45.9627 105.297 45.636C104.737 45.3093 104.298 44.8473 103.981 44.25C103.664 43.6527 103.505 42.9527 103.505 42.15ZM118.085 41.87C118.085 42.1127 118.071 42.3693 118.043 42.64H111.911C111.958 43.396 112.214 43.9887 112.681 44.418C113.157 44.838 113.731 45.048 114.403 45.048C114.954 45.048 115.411 44.922 115.775 44.67C116.148 44.4087 116.41 44.0633 116.559 43.634H117.931C117.726 44.3713 117.315 44.9733 116.699 45.44C116.083 45.8973 115.318 46.126 114.403 46.126C113.675 46.126 113.022 45.9627 112.443 45.636C111.874 45.3093 111.426 44.8473 111.099 44.25C110.772 43.6433 110.609 42.9433 110.609 42.15C110.609 41.3567 110.768 40.6613 111.085 40.064C111.402 39.4667 111.846 39.0093 112.415 38.692C112.994 38.3653 113.656 38.202 114.403 38.202C115.131 38.202 115.775 38.3607 116.335 38.678C116.895 38.9953 117.324 39.434 117.623 39.994C117.931 40.5447 118.085 41.17 118.085 41.87ZM116.769 41.604C116.769 41.1187 116.662 40.7033 116.447 40.358C116.232 40.0033 115.938 39.7373 115.565 39.56C115.201 39.3733 114.795 39.28 114.347 39.28C113.703 39.28 113.152 39.4853 112.695 39.896C112.247 40.3067 111.99 40.876 111.925 41.604H116.769Z" fill="#111827"/>
</g>
<defs>
<clipPath id="clip0_134_28563">
<rect width="119" height="46" fill="white" transform="translate(0.5)"/>
</clipPath>
</defs>
</svg>
